<svg width="128" height="93" viewBox="0 0 128 93" fill="none" xmlns="http://www.w3.org/2000/svg">
  <!-- 书本图标 -->
  <g>
    <!-- 第一组书 -->
    <g transform="translate(2.80, 20.11)">
      <path d="M39.2172 0L103.483 37.4194L64.2662 60.2492L0 22.8298L39.2172 0Z" transform="translate(0, 11.54)" fill="#6A6AE0"/>
      <path d="M36.879 0.580578Q1.80576 21.006 0 22.0565C0 23.6905 0 30.1566 0 31.7907Q1.80575 30.7402 36.879 10.3148C39.1941 8.96086 41.0693 5.69278 41.0693 3.00829C41.0461 0.3238 39.1709 -0.773338 36.879 0.580578Z" transform="translate(64.36, 37.34)" fill="#CED2F4"/>
      <path d="M3.86616 0.0117258C4.07452 0.478593 4.19027 1.03884 4.19027 1.69245C4.19027 4.37694 2.31507 7.64501 0 8.99892L2.24562 10.3062C4.56068 8.95224 6.43589 5.68417 6.43589 2.99968C6.43589 0.992147 5.39411 -0.128336 3.86616 0.0117258Z" transform="translate(101.21, 38.66)" fill="linear-gradient(30deg, #6A6AE0, #6464D7 25%, #5454BF 44%, #3B3A98 67%, #1E1C6B 90%)"/>
      <path d="M0 0L59.775 34.805L59.775 44.5392L0 9.73419L0 0Z" transform="translate(4.58, 24.59)" fill="#F5F5FA"/>
      <path d="M39.2172 0L103.483 37.4194L64.2662 60.2259L0 22.8065L39.2172 0Z" transform="translate(0, 0.71)" fill="#6A6AE0"/>
      <path d="M36.9716 0L96.7466 34.805L59.775 56.3042L0 21.4992L36.9716 0Z" transform="translate(4.49, 2.02)" fill="#5555C4"/>
      <path d="M0 0L64.2662 37.4194L64.2662 38.5399L0 1.12048L0 0Z" transform="translate(0, 23.52)" fill="#5555C4"/>
      <path d="M0 0L64.2662 37.4194L64.2662 38.5166L0 1.09714L0 0Z" transform="translate(0, 34.37)" fill="#5555C4"/>
      <path d="M68.0166 37.827L3.72726 0.407606C2.77808 -0.199321 1.45849 -0.152635 0 0.711071L64.2662 38.1305L68.0166 37.827Z" transform="translate(39.19, 0)" fill="linear-gradient(30deg, #6A6AE0, #6463D7 48%, #5252BF 50%, #4241A8 51%)"/>
      <path d="M44.3104 3.68607C44.3104 0.394657 42.0185 -0.935915 39.1941 0.698121L0 23.5279L0 24.6251L39.1941 1.79526C41.5091 0.464691 43.3843 1.53848 43.3843 4.22298C43.3843 6.90746 41.5091 10.1755 39.1941 11.5294L0 34.3593L0 35.4564L39.1941 12.6266C42.0185 10.9925 44.3104 7.00083 44.3104 3.68607Z" transform="translate(64.29, 37.41)" fill="#34318D"/>
      <path d="M18.0807 0L27.966 5.76581L9.88533 16.2937L0 10.5279L18.0807 0Z" transform="translate(37.76, 22.68)" fill="#FFFFFF"/>
      <path d="M9.05191 0L11.0197 1.14382L1.96781 6.41943L0 5.2756L9.05191 0Z" transform="translate(58.73, 29.63)" fill="#FFFFFF"/>
    </g>
    
    <!-- 第二组书 -->
    <g transform="translate(0, 0)">
      <path d="M64.2662 60.506L0 23.0866L39.6802 0L103.946 37.3961L64.2662 60.506Z" transform="translate(0.95, 9.34)" fill="#FFAD02"/>
      <path d="M37.2031 0L37.2031 8.21687L0 29.8795L0 21.6626L37.2031 0Z" transform="translate(62.97, 38.66)" fill="#CED2F4"/>
      <path d="M64.2662 61.0663L0 23.6468L40.6294 0L104.896 37.4194L64.2662 61.0663Z" fill="#FFD03E"/>
      <path d="M0 34.0813L40.6294 10.4345L40.6294 9.314L0.949178 32.424L0.949178 24.2071L40.6294 1.09714L40.6294 0L0 23.6468L0 34.0813Z" transform="translate(64.27, 37.42)" fill="#EF4E16"/>
      <path d="M6.36643 11.9518L0 8.24021L14.1451 0L20.5115 3.7116L6.36643 11.9518Z" transform="translate(42.67, 24.28)" fill="#F5F5FA"/>
      <path d="M64.2662 47.8539L0 10.4345L0 0L64.2662 37.4194L64.2662 47.8539Z" transform="translate(0, 23.65)" fill="#FFAD02"/>
      <path d="M2.19931 7.00301L0 5.71913L0 0L2.19931 1.28389L2.19931 7.00301Z" transform="translate(10.19, 31.93)" fill="#F5F5FA"/>
      <path d="M2.19931 7.00301L0 5.71913L0 0L2.19931 1.28389L2.19931 7.00301Z" transform="translate(15.40, 34.97)" fill="#F5F5FA"/>
    </g>
  </g>
</svg>