<svg width="163" height="158" viewBox="0 0 163 158" fill="none" xmlns="http://www.w3.org/2000/svg">
  <!-- 电脑图标 -->
  <g transform="translate(0, 61.32)">
    <!-- 书本部分 -->
    <g transform="translate(0, 3.43)">
      <path d="M0 82.3489L0 20.6501L35.6574 0L35.6574 61.6988L0 82.3489Z" fill="#423EAF"/>
      <path d="M38.8436 3.59132L32.6501 0L0 18.9083L6.1935 22.4996L38.8436 3.59132Z" fill="#FFFFFF"/>
      <path d="M0 82.3489L0 20.6501L35.6574 0L35.6574 61.6988L0 82.3489Z" transform="translate(7.86, 4.56)" fill="#3E5CAF"/>
      <path d="M0 20.6501L35.6574 0L36.4808 0.484825L1.66473 20.6501L7.85822 24.2414L42.6922 4.07614L43.5156 4.56097L7.85822 25.211L0 20.6501Z" fill="#6B67E9"/>
      <path d="M0 13.665L0 7.18263L12.4049 0L12.4049 6.48232L0 13.665Z" transform="translate(19.91, 40.47)" fill="#FFFFFF"/>
      <path d="M0 61.7168L0 0L7.85822 4.56097L7.85822 66.2598L0 61.7168Z" transform="translate(0, 20.65)" fill="#5291CC"/>
      <path d="M0 2.24457L0 0L4.31397 2.49597L4.31397 4.74054L0 2.24457Z" transform="translate(1.77, 32.03)" fill="#D1D7F3"/>
      <path d="M0 2.24457L0 0L4.31397 2.51392L4.31397 4.74053L0 2.24457Z" transform="translate(1.77, 37.31)" fill="#D1D7F3"/>
    </g>
    
    <!-- 第二本书 -->
    <g transform="translate(14.75, 0)">
      <path d="M2.09433 19.8241L2.09433 19.3033L0 21.4761L0 23.8104C0.286404 24.1157 0.64441 24.403 1.09192 24.6544C3.58006 26.0909 7.60762 26.0909 10.0958 24.6544L10.0958 80.5353L36.3376 65.326L36.3376 0L2.09433 19.8241Z" transform="translate(0.77, 0.48)" fill="#FC780B"/>
      <path d="M1.51705 18.7467Q32.3055 0.915781 33.8808 0C35.1159 0.718263 39.9848 3.53745 41.2199 4.25571Q39.6447 5.1715 8.85616 23.0024C6.83343 24.1696 3.53978 24.1696 1.51705 23.0024C-0.505682 21.8172 -0.505682 19.9138 1.51705 18.7467Z" transform="translate(1.19, 3.95)" fill="#F5F5FA"/>
      <path d="M0 85.2758L0 19.9318L34.4043 0L34.4043 65.344L0 85.2758Z" transform="translate(10.88, 5.21)" fill="#EF4E16"/>
      <path d="M1.86611 25.1392C-0.622035 23.7027 -0.622035 21.3683 1.86611 19.9318L36.2705 0L37.0939 0.48483L2.68952 20.4166C0.666788 21.5838 0.666788 23.4872 2.68952 24.6724C4.71225 25.8395 8.00591 25.8395 10.0286 24.6724L44.433 4.74054L45.2564 5.22537L10.8521 25.1572C8.38181 26.5757 4.35425 26.5757 1.86611 25.1392Z" transform="translate(0.01, 0)" fill="#FFD03E"/>
      <path d="M10.8655 2.6037C8.37734 4.04023 4.34977 4.04023 1.86163 2.6037C0.62651 1.88544 0 0.933744 0 0L0 65.344C0 66.2957 0.62651 67.2295 1.86163 67.9477C4.34977 69.3842 8.37734 69.3842 10.8655 67.9477L10.8655 2.6037Z" transform="translate(0, 22.54)" fill="linear-gradient(90deg, #FFAD02, #F9880A 41%, #EF4E16 100%)"/>
      <path d="M0 19.2315L0 9.19376L15.8776 0L15.8776 10.0377L0 19.2315Z" transform="translate(20.14, 38.23)" fill="#CED3F8"/>
      <path d="M9.3171 6.9492L9.3171 3.2681C6.91846 3.98636 3.89331 3.77088 1.87058 2.6037C0.975566 2.08296 0.402758 1.45448 0.152154 0.772131C0.0626521 0.520734 0.00895069 0.251386 0.00895069 0Q-0.00894932 0 0.00895069 3.6811C0.00895069 4.6328 0.635461 5.56654 1.87058 6.2848C3.87541 7.45198 6.91846 7.66746 9.3171 6.9492Z" transform="translate(0.01, 53.96)" fill="linear-gradient(90deg, #F5F5FA, #D1D7F3 99%)"/>
      <path d="M1.86163 2.6037C0.966616 2.08296 0.393807 1.45448 0.143203 0.772131C0.0537014 0.52074 0 0.251391 0 0L0 1.56222C0 2.51392 0.62651 3.44767 1.86163 4.16593C4.34977 5.60246 8.37733 5.60246 10.8655 4.16593L10.8655 2.6037C8.37733 4.04023 4.34977 4.04023 1.86163 2.6037Z" transform="translate(0.02, 29.75)" fill="#DADFF2"/>
      <path d="M1.86163 2.6037C0.966616 2.08296 0.393807 1.45448 0.143203 0.772131C0.0537014 0.520734 0 0.251386 0 0L0 1.56222C0 2.51392 0.62651 3.44767 1.86163 4.16593C4.34977 5.60246 8.37733 5.60246 10.8655 4.16593L10.8655 2.6037C8.37733 4.04023 4.34977 4.04023 1.86163 2.6037Z" transform="translate(0.02, 34.08)" fill="#DADFF2"/>
      <path d="M1.86163 2.6037C0.966616 2.08296 0.393807 1.45448 0.143203 0.772131C0.0537014 0.520734 0 0.251386 0 0L0 1.56222C0 2.51392 0.62651 3.44767 1.86163 4.16593C4.34977 5.60246 8.37733 5.60246 10.8655 4.16593L10.8655 2.6037C8.37733 4.04023 4.34977 4.04023 1.86163 2.6037Z" transform="translate(0.02, 74.77)" fill="#DADFF2"/>
      <path d="M1.86163 2.6037C0.966616 2.08296 0.393807 1.45448 0.143203 0.772131C0.0537014 0.520734 0 0.251386 0 0L0 1.56222C0 2.51392 0.62651 3.44767 1.86163 4.16593C4.34977 5.60246 8.37733 5.60246 10.8655 4.16593L10.8655 2.6037C8.37733 4.04023 4.34977 4.04023 1.86163 2.6037Z" transform="translate(0.02, 79.10)" fill="#DADFF2"/>
    </g>
    
    <!-- 屏幕部分 -->
    <g transform="translate(46.88, 0.01)">
      <g transform="translate(17.13, 112.19)">
        <path d="M50.349 0.875383C48.3263 -0.291795 45.0147 -0.291795 42.992 0.875383L1.51705 24.8833C-0.50568 26.0505 -0.50568 27.9719 1.51705 29.1391L22.9258 41.5291C24.9485 42.6963 28.2601 42.6963 30.2828 41.5291L71.7578 17.5032C73.7805 16.336 73.7805 14.4147 71.7578 13.2475L50.349 0.875383Z" fill="#FFFFFF"/>
        <path d="M27.1189 0L26.7609 0L0 15.4965L21.3013 15.4965L44.7686 1.90339C45.6815 1.3647 46.1827 0.682348 46.2722 0L27.1189 0Z" transform="translate(26.98, 15.62)" fill="#DADFF2"/>
        <path d="M71.7443 2.04706L30.2694 26.073C28.2467 27.2401 24.9351 27.2401 22.9124 26.073L1.50362 13.6829C0.537009 13.1263 0.0357973 12.39 0 11.6359L0 14.904C0 15.6761 0.501206 16.4482 1.52152 17.0408L22.9303 29.4308C24.953 30.598 28.2645 30.598 30.2873 29.4308L71.7622 5.40494C72.8184 4.79441 73.3196 3.98636 73.2659 3.17832L73.2659 0C73.2301 0.754179 72.7289 1.49039 71.7443 2.04706Z" transform="translate(0, 15.47)" fill="linear-gradient(90deg, #5555C4 24%, #5453C2 30%, #4F4EBA 33%, #4746AC 36%, #3B3999 38%, #34318D 39%)"/>
      </g>
      
      <g transform="translate(36.53, 108.31)">
        <path d="M28.4256 13.0006C26.7609 7.88295 26.7609 3.5195 26.7609 1.70588L23.8074 0C23.8074 0.754179 23.8074 1.90339 23.9148 3.35788L0 17.2024C0 19.7343 0 27.3299 4.63617 34.9974L31.3971 19.5009L28.4256 13.0006Z" transform="translate(2.95, 0)" fill="#BBBFE2"/>
        <path d="M29.7145 1.70588L2.95355 17.2024L0 15.4965L26.7609 0L29.7145 1.70588Z" fill="#C4B6BC"/>
        <path d="M7.58972 19.5008C2.97145 11.8334 2.95355 4.23775 2.95355 1.70588L0 0C0 2.51392 0 9.40926 3.63376 17.2204L7.58972 19.5008Z" transform="translate(0, 15.50)" fill="#CED2F4"/>
        <path d="M0 15.4965C0.161101 16.8792 0.429606 18.4235 0.877113 20.1114L27.638 4.61484C27.2084 2.94488 26.9399 1.38266 26.7609 0L0 15.4965Z" transform="translate(3.22, 6.57)" fill="#DADFF2"/>
      </g>
      
      <g transform="translate(0, 0)">
        <path d="M106.543 2.6352C106.543 0.282892 104.878 -0.668807 102.855 0.498371L3.68746 57.9594C1.66473 59.1266 0 62.0176 0 64.352L0 131.043L106.543 69.3439L106.543 2.6352Z" transform="translate(3.99, 2.30)" fill="#1E1C6B"/>
        <path d="M102.873 0.497772L3.68746 57.9409C1.66473 59.1081 0 61.9991 0 64.3334L0 131.024L3.99176 133.341L3.99176 66.6498C3.99176 64.2975 5.65649 61.4245 7.67922 60.2573L106.865 2.79621C107.688 2.31139 108.458 2.20365 109.066 2.38321L105.88 0.569598C105.2 -0.130708 104.108 -0.220491 102.873 0.497772Z" fill="linear-gradient(30deg, #6A6AE0, #6464D7 25%, #5454BF 44%, #3B3A98 67%, #1E1C6B 90%)"/>
        <path d="M0 61.6988L0 75.1842C0 77.5365 1.66472 78.4882 3.68746 77.321L102.873 19.8779C104.896 18.7108 106.56 15.8198 106.56 13.4854L106.56 0L0 61.6988Z" transform="translate(3.99, 71.64)" fill="#BBBFE2"/>
        <path d="M3.99176 15.8018L3.99176 2.3164L0 0L0 13.4854C0 14.6705 0.411704 15.4965 1.09192 15.8736L4.92258 18.0823C4.34977 17.6513 3.99176 16.8792 3.99176 15.8018Z" transform="translate(0, 131.02)" fill="#CED2F4"/>
        <path d="M99.1855 66.6908L0 124.134L0 57.4431L99.1855 0L99.1855 66.6908Z" transform="translate(7.68, 7.07)" fill="#FFFFFF"/>
      </g>
    </g>
    
    <!-- 屏幕内部背景 -->
    <g transform="translate(54.56, 7.07)">
      <path d="M99.1855 66.6908L0 124.134L0 57.4431L99.1855 0L99.1855 66.6908Z" fill="linear-gradient(90deg, #5555C4, #7273CC 31%, #BBBFE2 99%)"/>
      <path d="M0 90.7885L0 24.0977L41.6003 0L99.1855 33.3454L0 90.7885Z" transform="translate(0, 33.35)" fill="linear-gradient(120deg, #FFFFFF, #F0EEEE 33%, #E0DCDC 56%)"/>
    </g>
  </g>
</svg>