<svg width="57" height="34" viewBox="0 0 57 34" fill="none" xmlns="http://www.w3.org/2000/svg">
  <!-- 笔图标 -->
  <g>
    <path d="M2.29518 0C1.95375 0 1.65025 0.0765335 1.34676 0.248734C1.15707 0.363534 0.493179 0.746201 0 1.0332C0.113811 1.07147 0.246587 1.12887 0.360398 1.2054C1.27088 1.74114 2.01065 3.04221 2.01065 4.09454C2.01065 4.32414 1.97271 4.51548 1.89684 4.68768L3.35741 3.84581C3.94543 3.46314 4.3248 2.81261 4.3248 2.08554C4.34376 0.918402 3.41431 0 2.29518 0Z" transform="translate(52.66, 0)" fill="linear-gradient(149deg, #6A6AE0, #34318D 81%)"/>
    <path d="M0.417304 3.40574C0.720799 3.57794 0.948419 3.99887 0.948419 4.34327C0.948419 4.55374 0.853577 4.68767 0.720799 4.72594L4.45757 4.17107L5.25424 3.02307L4.45757 0.937534L2.86423 0L0 3.40574C0.0948419 3.31007 0.246589 3.31007 0.417304 3.40574Z" transform="translate(1.38, 28.97)" fill="linear-gradient(331deg, #CED3F8, #F5F5FA 78%)"/>
    <path d="M1.802 0.0717501C1.63128 -0.0239167 1.47953 -0.0239167 1.38469 0.0717501L1.32779 0.110016L0 1.67895L2.06755 1.37282L2.10549 1.37282C2.23827 1.33455 2.33311 1.20062 2.33311 0.99015C2.33311 0.664886 2.08652 0.243952 1.802 0.0717501Z" transform="translate(0, 32.30)" fill="linear-gradient(322deg, #34318D, #6A6AE0 69%)"/>
    <path d="M1.03733 3.65521C0.90455 3.57868 0.733835 3.38735 0.676933 3.23428L0.0320086 1.55054C-0.0248972 1.39748 -0.00592762 1.16788 0.0889143 1.03394L0.714872 0.134673C0.809714 0.000739916 0.999397 -0.0375268 1.13218 0.0390066L2.441 0.804342C2.57378 0.880875 2.74449 1.07221 2.80139 1.22528L3.44632 2.90901C3.50322 3.06208 3.48426 3.29168 3.38942 3.42561L2.76346 4.32488C2.66862 4.45882 2.47893 4.49708 2.32719 4.42055L1.03733 3.65521Z" transform="translate(47.81, 2.93)" fill="#CED2F4"/>
    <path d="M45.2965 2.0664L0.81564 27.9921L0 25.9066L44.4998 0L45.2965 2.0664Z" transform="translate(5.84, 4.00)" fill="#FFAD02"/>
    <path d="M44.4998 1.148L0 27.0737L0.81564 25.9257L45.2965 0L44.4998 1.148Z" transform="translate(5.84, 6.07)" fill="#EF4E16"/>
    <path d="M46.0932 0.937535L1.59334 26.8441L0 25.9066L44.4998 0L46.0932 0.937535Z" transform="translate(4.25, 3.06)" fill="#FFD03E"/>
    <path d="M20.6945 0.0765338L17.6216 0L0 10.2555L3.05391 10.332L3.86955 12.4176L3.05391 13.5656L20.6945 3.29094L21.4912 2.14294L20.6945 0.0765338Z" transform="translate(22.23, 8.25)" fill="linear-gradient(90deg, #F2F2F2, #F9F9F9 54%, #FFFFFF 80%)"/>
    
    <!-- 笔尖部分 -->
    <g transform="translate(48.65, 0.70)">
      <path d="M6.39234 2.91306L5.74742 1.22932C5.69052 1.07625 5.5198 0.884918 5.38702 0.808385L4.0782 0.0430501C3.98336 -0.01435 3.85058 -0.01435 3.75574 0.0430501Q3.73677 0.0621834 0 2.22425C0.0948419 2.18599 0.208653 2.18599 0.303495 2.22425L1.61231 2.98959C1.74509 3.06612 1.91581 3.25746 1.97271 3.41052L2.61764 5.09426C2.67454 5.24733 2.65557 5.47693 2.56073 5.61086L1.93478 6.51013C1.91581 6.5484 1.87787 6.56753 1.83994 6.58666L5.57671 4.40546C5.61465 4.38633 5.67155 4.34806 5.69052 4.30979L6.31648 3.41052C6.41131 3.31486 6.44925 3.06612 6.39234 2.91306Z" fill="linear-gradient(329deg, #A7ADD1 31%, #BBBFE2 34%, #BBBFE2 56%, #F5F5FA 63%)"/>
      <path d="M2.10549 4.40546C2.14343 4.38633 2.16239 4.34806 2.20033 4.32893L2.82629 3.42966C2.92113 3.29572 2.9401 3.06612 2.88319 2.91306L2.23827 1.22932C2.18136 1.07625 2.01064 0.884919 1.87787 0.808385L0.569052 0.0430502C0.47421 -0.01435 0.360398 -0.01435 0.265556 0.0430502L0 0.196117C0.0948419 0.15785 0.208653 0.15785 0.303495 0.196117L1.61231 0.961452C1.74509 1.03799 1.91581 1.22932 1.97271 1.38239L2.61764 3.06612C2.67454 3.21919 2.65557 3.44879 2.56073 3.58272L1.93478 4.48199C1.91581 4.52026 1.87787 4.53939 1.83994 4.55853L2.10549 4.40546Z" transform="translate(0.27, 1.89)" fill="linear-gradient(322deg, #D1D6F0 58%, #F0F0F5 70%)"/>
      <path d="M2.10549 4.40546C2.14343 4.38633 2.16239 4.34806 2.20033 4.32893L2.82629 3.42966C2.92113 3.29572 2.9401 3.06612 2.88319 2.91306L2.23827 1.22932C2.18136 1.07625 2.01064 0.884919 1.87787 0.808385L0.569052 0.0430502C0.47421 -0.01435 0.360398 -0.01435 0.265556 0.0430502L0 0.196117C0.0948419 0.15785 0.208653 0.15785 0.303495 0.196117L1.61231 0.961452C1.74509 1.03799 1.91581 1.22932 1.97271 1.38239L2.61764 3.06612C2.67454 3.21919 2.65557 3.44879 2.56073 3.58272L1.93478 4.48199C1.91581 4.52026 1.87787 4.53939 1.83994 4.55853L2.10549 4.40546Z" transform="translate(0.83, 1.57)" fill="linear-gradient(322deg, #D1D6F0 58%, #F0F0F5 70%)"/>
      <path d="M2.10549 4.40546C2.14343 4.38633 2.16239 4.34806 2.20033 4.32893L2.82629 3.42966C2.92113 3.29572 2.9401 3.06612 2.88319 2.91306L2.23827 1.22932C2.18136 1.07625 2.01064 0.884918 1.87787 0.808385L0.569052 0.0430502C0.47421 -0.01435 0.360398 -0.01435 0.265556 0.0430502L0 0.196117C0.0948419 0.15785 0.208653 0.15785 0.303495 0.215251L1.61231 0.980585C1.74509 1.05712 1.91581 1.24845 1.97271 1.40152L2.61764 3.08526C2.67454 3.23832 2.65557 3.46792 2.56073 3.60186L1.93478 4.50113C1.91581 4.53939 1.87787 4.55853 1.83994 4.57766L2.10549 4.40546Z" transform="translate(1.40, 1.24)" fill="linear-gradient(322deg, #D1D6F0 58%, #F0F0F5 70%)"/>
    </g>
  </g>
</svg>